<svg width="19" height="13" viewBox="0 0 19 13" fill="none" xmlns="http://www.w3.org/2000/svg">
<path d="M18.7602 5.73816L13.3418 0.319649C13.1872 0.164977 12.981 0.0800781 12.7612 0.0800781C12.5412 0.0800781 12.3351 0.165099 12.1805 0.319649L11.6885 0.81172C11.534 0.966148 11.4488 1.17242 11.4488 1.39235C11.4488 1.61216 11.534 1.82538 11.6885 1.97981L14.8495 5.14778H1.80666C1.35386 5.14778 0.996094 5.50225 0.996094 5.95517V6.65083C0.996094 7.10374 1.35386 7.49396 1.80666 7.49396H14.8854L11.6886 10.6796C11.5341 10.8343 11.4489 11.0349 11.4489 11.2549C11.4489 11.4746 11.5341 11.6781 11.6886 11.8327L12.1806 12.3232C12.3353 12.4779 12.5413 12.5621 12.7613 12.5621C12.9811 12.5621 13.1873 12.4768 13.342 12.3221L18.7604 6.90369C18.9154 6.74853 19.0007 6.54141 19.0001 6.32123C19.0005 6.10033 18.9154 5.89308 18.7602 5.73816Z" fill="white"/>
</svg>
