<?xml version="1.0" encoding="utf-8"?>
<!-- Generator: Adobe Illustrator 16.0.0, SVG Export Plug-In . SVG Version: 6.00 Build 0)  -->
<!DOCTYPE svg PUBLIC "-//W3C//DTD SVG 1.1//EN" "http://www.w3.org/Graphics/SVG/1.1/DTD/svg11.dtd" [
	<!ENTITY ns_extend "http://ns.adobe.com/Extensibility/1.0/">
	<!ENTITY ns_ai "http://ns.adobe.com/AdobeIllustrator/10.0/">
	<!ENTITY ns_graphs "http://ns.adobe.com/Graphs/1.0/">
	<!ENTITY ns_vars "http://ns.adobe.com/Variables/1.0/">
	<!ENTITY ns_imrep "http://ns.adobe.com/ImageReplacement/1.0/">
	<!ENTITY ns_sfw "http://ns.adobe.com/SaveForWeb/1.0/">
	<!ENTITY ns_custom "http://ns.adobe.com/GenericCustomNamespace/1.0/">
	<!ENTITY ns_adobe_xpath "http://ns.adobe.com/XPath/1.0/">
]>
<svg version="1.1" id="Layer_1" xmlns:x="&ns_extend;" xmlns:i="&ns_ai;" xmlns:graph="&ns_graphs;"
	 xmlns="http://www.w3.org/2000/svg" xmlns:xlink="http://www.w3.org/1999/xlink" x="0px" y="0px" width="400px" height="400px"
	 viewBox="0 20 400 400" enable-background="new 0 20 400 400" xml:space="preserve">
<metadata>
	<sfw  xmlns="&ns_sfw;">
		<slices></slices>
		<sliceSourceBounds  width="400" height="400.001" y="20.099" x="-0.492" bottomLeftOrigin="true"></sliceSourceBounds>
	</sfw>
</metadata>
<g>
	<path fill="#485C8C" d="M384.955,169.997c-0.548,0.561-0.989,0.848-1.249,0.848l-56.329,57.22
		c-1.691,1.721-2.578,4.145-2.578,7.271c-0.261,23.072-0.415,57.379-0.415,102.946v3.39c0,0.888-0.572,1.563-1.721,2.138
		c-1.119,0.573-2.553,0.887-4.243,0.887H82.04c-1.707,0-3.27-0.571-4.688-1.721c-1.146-1.146-1.706-2.556-1.706-4.275V101.657
		c0-1.708,0.274-3.142,0.848-4.275c0.858-1.135,1.704-1.708,2.563-1.708h3.412c45.222,0,79.219-0.143,101.967-0.429
		c3.698,0,6.692-1.135,8.957-3.416c8.256-7.976,20.195-19.929,35.834-35.883l20.052-20.073c0.573-0.561,0.443-0.992-0.417-1.276
		c-0.832-0.574-2.135-0.849-3.854-0.849H19.317c-1.706,0-3.125,0.562-4.27,1.708c-1.133,1.134-1.707,2.555-1.707,4.263v361.34
		c0,1.721,0.573,3.127,1.707,4.274c1.146,1.146,2.563,1.721,4.27,1.721h360.951c1.72,0,3.124-0.573,4.271-1.721
		c1.435-1.147,2.136-2.555,2.136-4.274V175.119c0-1.708-0.13-3.142-0.416-4.274C385.973,169.709,385.527,169.422,384.955,169.997z"
		/>
	<path fill="#485C8C" d="M130.255,214.834v69.2c0,1.695,0.573,3.13,1.706,4.25c1.419,1.146,2.981,1.72,4.688,1.72h68.697
		c1.708,0,3.555-0.418,5.546-1.276c1.993-0.859,3.558-1.851,4.688-2.997l165.548-165.707c1.432-1.435,2.135-2.854,2.135-4.275
		c0-1.708-0.703-3.129-2.135-4.274L309.019,38.87c-1.146-1.42-2.552-2.138-4.271-2.138c-1.693,0-3.256,0.718-4.688,2.138
		L134.513,204.59c-1.133,1.135-2.122,2.698-2.982,4.692C130.686,211.276,130.255,213.127,130.255,214.834z"/>
	<polygon fill="#FFFFFF" points="384.955,169.997 375.529,160.56 375.529,160.56 	"/>
	<polygon fill="#FFFFFF" points="383.706,170.844 383.706,157.496 378.107,157.496 374.201,161.472 	"/>
	<polygon fill="#FFFFFF" points="327.377,228.064 336.806,237.502 336.882,237.45 	"/>
	<polygon fill="#FFFFFF" points="324.799,235.337 338.134,235.521 338.134,235.337 	"/>
	<path fill="#FFFFFF" d="M322.663,343.81l-5.938-11.938L322.663,343.81z"/>
	<polygon fill="#FFFFFF" points="77.352,342.976 67.924,352.412 68.446,352.935 69.018,353.404 	"/>
	<polygon fill="#FFFFFF" points="76.493,97.382 65.828,89.379 65.099,90.33 64.565,91.412 	"/>
	<polygon fill="#FFFFFF" points="184.436,95.245 184.436,81.897 184.279,81.897 	"/>
	<polygon fill="#FFFFFF" points="193.393,91.829 184.135,82.223 183.966,82.392 	"/>
	<polygon fill="#FFFFFF" points="229.227,55.945 219.812,46.508 219.721,46.6 	"/>
	<polygon fill="#FFFFFF" points="248.861,34.595 241.467,45.7 242.95,46.691 244.644,47.264 	"/>
	<polygon fill="#FFFFFF" points="384.538,405.333 376.204,394.905 375.632,395.374 375.112,395.896 	"/>
	<polygon fill="#FFFFFF" points="131.961,288.284 122.534,297.721 123.055,298.241 123.628,298.712 	"/>
	<polygon fill="#FFFFFF" points="210.892,288.727 205.646,276.448 205.646,276.448 	"/>
	<polygon fill="#FFFFFF" points="215.58,285.729 206.152,276.291 206.152,276.291 	"/>
	<path fill="#FFFFFF" d="M381.128,120.022l9.452,9.437L381.128,120.022z"/>
	<polygon fill="#FFFFFF" points="381.128,111.472 371.674,120.883 372.196,121.43 372.82,121.9 	"/>
	<polygon fill="#FFFFFF" points="309.019,38.87 298.602,47.212 299.07,47.773 299.565,48.281 	"/>
	<polygon fill="#FFFFFF" points="134.513,204.59 125.086,195.153 125.086,195.153 	"/>
	<polygon fill="#FFFFFF" points="131.531,209.282 119.279,204.029 119.279,204.029 	"/>
	<path fill="#FFFFFF" d="M375.529,160.56c0.052-0.039,0.493-0.496,1.302-1.03c0.416-0.287,1.146-0.73,2.136-1.134
		c0.989-0.392,2.631-0.899,4.74-0.899v26.695c4.141,0,7.029-1.864,7.916-2.451c1.249-0.821,2.187-1.708,2.761-2.307L375.529,160.56z
		"/>
	<polygon fill="#FFFFFF" points="374.201,161.472 317.87,218.706 336.882,237.45 393.185,180.215 	"/>
	<path fill="#FFFFFF" d="M317.925,218.641c-4.871,4.888-6.458,11.116-6.458,16.695h26.667c0-0.391,0.052-0.207-0.106,0.288
		c-0.207,0.546-0.571,1.251-1.222,1.877L317.925,218.641z"/>
	<path fill="#FFFFFF" d="M311.467,235.155c-0.263,23.149-0.418,57.561-0.418,103.128h26.668c0-45.567,0.154-79.796,0.417-102.762
		L311.467,235.155z"/>
	<rect x="311.049" y="338.283" fill="#FFFFFF" width="26.668" height="3.39"/>
	<path fill="#FFFFFF" d="M311.049,341.673c0-2.814,1.043-5.316,2.5-7.143c1.304-1.616,2.656-2.399,3.178-2.658l11.928,23.878
		c3.176-1.563,9.063-5.864,9.063-14.077H311.049z"/>
	<path fill="#FFFFFF" d="M316.727,331.872c1.224-0.601,1.979-0.523,1.693-0.523v26.696c3.099,0,6.719-0.521,10.233-2.295
		L316.727,331.872z"/>
	<rect x="82.04" y="331.348" fill="#FFFFFF" width="236.38" height="26.696"/>
	<path fill="#FFFFFF" d="M82.04,331.348c0.664,0,1.393,0.105,2.107,0.365c0.704,0.263,1.212,0.573,1.525,0.835l-16.655,20.855
		c3.621,2.867,8.073,4.641,13.022,4.641V331.348z"/>
	<path fill="#FFFFFF" d="M86.778,333.539c0.64,0.625,1.25,1.514,1.667,2.556c0.417,1.043,0.534,1.954,0.534,2.605H62.312
		c0,5.007,1.811,9.906,5.612,13.712L86.778,333.539z"/>
	<rect x="62.312" y="101.657" fill="#FFFFFF" width="26.667" height="237.043"/>
	<path fill="#FFFFFF" d="M88.979,101.657c0-0.313,0.052,0.456-0.56,1.694l-23.854-11.94c-1.758,3.521-2.253,7.13-2.253,10.246
		H88.979z"/>
	<path fill="#FFFFFF" d="M87.156,105.385c-0.155,0.209-0.768,1.018-1.991,1.824c-1.315,0.873-3.411,1.813-6.107,1.813V82.327
		c-7.213,0-11.522,4.771-13.229,7.052L87.156,105.385z"/>
	<rect x="79.057" y="82.327" fill="#FFFFFF" width="3.412" height="26.694"/>
	<path fill="#FFFFFF" d="M82.469,109.021c45.234,0,79.296-0.145,102.136-0.431l-0.326-26.693c-22.669,0.287-56.601,0.43-101.81,0.43
		V109.021z"/>
	<path fill="#FFFFFF" d="M184.436,108.591c6.666,0,13.242-2.163,18.397-7.324l-18.867-18.875c0.078-0.078,0.195-0.168,0.338-0.261
		c0.143-0.104,0.287-0.169,0.404-0.208c0.233-0.092,0.208-0.025-0.273-0.025L184.436,108.591L184.436,108.591z"/>
	<path fill="#FFFFFF" d="M202.664,101.436c8.372-8.108,20.417-20.165,36.094-36.132L219.721,46.6
		c-15.61,15.928-27.459,27.775-35.585,35.624L202.664,101.436z"/>
	<polygon fill="#FFFFFF" points="238.653,65.395 258.705,45.309 239.852,26.436 219.812,46.508 	"/>
	<path fill="#FFFFFF" d="M258.705,45.309c0.965-0.952,6.197-6.452,3.543-14.403c-1.198-3.597-3.517-5.788-5.131-6.935
		c-1.591-1.135-3.101-1.722-4.037-2.033l-8.438,25.325c-0.52-0.183-1.667-0.612-3.021-1.563c-1.354-0.977-3.542-2.972-4.662-6.347
		c-2.499-7.521,2.525-12.526,2.892-12.917L258.705,45.309z"/>
	<path fill="#FFFFFF" d="M256.258,23.49c-4.063-2.712-8.464-3.089-11.25-3.089v26.695c0.156,0-0.105,0.013-0.625-0.104
		c-0.546-0.13-1.666-0.443-2.916-1.291L256.258,23.49z"/>
	<rect x="19.317" y="20.4" fill="#FFFFFF" width="225.69" height="26.695"/>
	<path fill="#FFFFFF" d="M19.317,20.4c-5,0-9.896,1.812-13.697,5.618l18.866,18.873c-0.65,0.64-1.51,1.251-2.564,1.669
		c-1.029,0.417-1.954,0.535-2.604,0.535V20.4z"/>
	<path fill="#FFFFFF" d="M5.62,26.019c-3.803,3.806-5.612,8.693-5.612,13.699h26.667c0,0.65-0.104,1.576-0.521,2.606
		c-0.416,1.055-1.028,1.916-1.667,2.567L5.62,26.019z"/>
	<rect x="0.008" y="39.719" fill="#FFFFFF" width="26.667" height="361.34"/>
	<path fill="#FFFFFF" d="M0.008,401.058c0,5.005,1.81,9.905,5.612,13.712l18.866-18.873c0.639,0.626,1.25,1.511,1.667,2.555
		c0.417,1.043,0.521,1.955,0.521,2.606H0.008z"/>
	<path fill="#FFFFFF" d="M5.62,414.77c3.802,3.806,8.697,5.631,13.697,5.631v-26.693c0.651,0,1.575,0.104,2.604,0.521
		c1.055,0.417,1.914,1.017,2.564,1.669L5.62,414.77z"/>
	<rect x="19.317" y="393.707" fill="#FFFFFF" width="360.951" height="26.693"/>
	<path fill="#FFFFFF" d="M380.269,420.4c4.999,0,9.896-1.825,13.697-5.631l-18.854-18.873c0.65-0.652,1.511-1.252,2.552-1.669
		s1.979-0.521,2.604-0.521L380.269,420.4L380.269,420.4z"/>
	<path fill="#FFFFFF" d="M392.871,415.761c4.351-3.493,7.137-8.631,7.137-14.703h-26.666c0-1.043,0.259-2.348,0.886-3.624
		c0.625-1.227,1.404-2.061,1.978-2.528L392.871,415.761z"/>
	<rect x="373.342" y="175.119" fill="#FFFFFF" width="26.666" height="225.938"/>
	<path fill="#FFFFFF" d="M400.008,175.119c0-2.358-0.183-4.954-0.832-7.508l-25.86,6.479c-0.025-0.183-0.025-0.194-0.025,0
		c0.053,0.208,0.053,0.535,0.053,1.03L400.008,175.119L400.008,175.119z"/>
	<path fill="#FFFFFF" d="M399.176,167.611c-0.209-0.833-0.574-2.073-1.253-3.428c-0.571-1.212-1.979-3.623-4.789-5.514
		c-3.413-2.269-7.581-2.881-11.407-1.786c-3.202,0.913-5.26,2.737-6.197,3.677l18.854,18.873c-0.624,0.651-2.396,2.28-5.363,3.129
		c-3.596,1.028-7.501,0.442-10.678-1.683c-2.604-1.733-3.829-3.896-4.271-4.757c-0.47-1.004-0.678-1.786-0.755-2.034
		L399.176,167.611z"/>
	<rect x="116.922" y="214.834" fill="#FFFFFF" width="26.667" height="69.2"/>
	<path fill="#FFFFFF" d="M116.922,284.034c0,5.007,1.81,9.881,5.612,13.688l18.854-18.873c0.637,0.677,1.25,1.511,1.667,2.554
		c0.417,1.042,0.534,1.98,0.534,2.633L116.922,284.034L116.922,284.034z"/>
	<path fill="#FFFFFF" d="M123.628,298.712c3.619,2.92,8.084,4.641,13.02,4.641v-26.693c0.664,0,1.394,0.104,2.11,0.365
		c0.703,0.259,1.21,0.598,1.536,0.858L123.628,298.712z"/>
	<rect x="136.648" y="276.658" fill="#FFFFFF" width="68.697" height="26.693"/>
	<path fill="#FFFFFF" d="M205.346,303.352c3.934,0,7.579-0.99,10.795-2.347l-10.495-24.558c-0.377,0.157-0.573,0.21-0.624,0.235
		c-0.053,0.024,0.065-0.025,0.324-0.025V303.352L205.346,303.352z"/>
	<path fill="#FFFFFF" d="M216.141,301.006c3.047-1.305,6.198-3.154,8.881-5.84l-18.869-18.875c0.224-0.207,0.327-0.259,0.248-0.207
		c-0.078,0.053-0.325,0.183-0.755,0.364L216.141,301.006z"/>
	<polygon fill="#FFFFFF" points="225.009,295.166 390.58,129.459 371.699,110.585 206.152,276.291 	"/>
	<path fill="#FFFFFF" d="M390.58,129.459c2.864-2.881,6.017-7.495,6.017-13.712h-26.666c0-3.362,1.743-5.135,1.77-5.162
		L390.58,129.459z"/>
	<path fill="#FFFFFF" d="M396.597,115.748c0-6.061-2.788-11.223-7.136-14.689L372.82,121.9c-0.599-0.47-1.406-1.278-2.031-2.529
		c-0.625-1.276-0.857-2.555-0.857-3.623H396.597z"/>
	<polygon fill="#FFFFFF" points="390.58,102.062 318.497,29.459 299.565,48.281 371.674,120.883 	"/>
	<path fill="#FFFFFF" d="M319.435,30.528c-3.49-4.34-8.619-7.143-14.688-7.143V50.08c-1.042,0-2.344-0.234-3.593-0.874
		c-1.251-0.625-2.085-1.421-2.554-1.994L319.435,30.528z"/>
	<path fill="#FFFFFF" d="M304.747,23.386c-5.86,0-10.679,2.594-14.114,6.047l18.854,18.874c-0.208,0.234-0.78,0.704-1.666,1.107
		c-0.938,0.431-1.978,0.665-3.072,0.665L304.747,23.386L304.747,23.386z"/>
	<polygon fill="#FFFFFF" points="290.633,29.433 125.086,195.153 143.953,214.026 309.486,48.307 	"/>
	<path fill="#FFFFFF" d="M125.086,195.153c-2.67,2.672-4.505,5.826-5.808,8.876l24.506,10.519c0.194-0.442,0.324-0.677,0.391-0.769
		c0.051-0.078-0.013,0.026-0.222,0.247L125.086,195.153z"/>
	<path fill="#FFFFFF" d="M119.279,204.029c-1.381,3.22-2.356,6.869-2.356,10.805h26.667c0,0.263-0.039,0.393-0.026,0.339
		c0.014-0.053,0.065-0.26,0.223-0.626L119.279,204.029z"/>
</g>
</svg>
