<?xml version="1.0" encoding="UTF-8"?>
<svg data-name="Layer 1" viewBox="0 0 24.38 19" xmlns="http://www.w3.org/2000/svg">
<defs>
<style>.cls-1{fill:#2c3940;}.cls-2,.cls-3{fill:none;stroke:#2c3940;stroke-linecap:round;stroke-miterlimit:10;stroke-width:2px;}.cls-3{stroke-dasharray:1.96 2.93;}</style>
</defs>
<title>eye</title>
<path class="cls-1" transform="translate(-529.97 -693.17)" d="m535.88 700.08a11 11 0 0 1 12.54 0 11 11 0 0 1 4 5.07 11 11 0 0 1-4 5.07 11 11 0 0 1-12.54 0 11 11 0 0 1-4-5.07 11 11 0 0 1 4-5.07zm3 8.39a4.52 4.52 0 0 0 3.32 1.38 4.45 4.45 0 0 0 3.29-1.38 4.72 4.72 0 0 0 0-6.63 4.45 4.45 0 0 0-3.29-1.38 4.69 4.69 0 0 0-3.35 8zm1.32-5.31a2.69 2.69 0 0 1 2-0.81 2.77 2.77 0 0 1 2 0.81 2.81 2.81 0 0 1 0 4 2.76 2.76 0 0 1-2 0.81 2.77 2.77 0 0 1-2.79-2.81 2.71 2.71 0 0 1 0.76-2.01z"/>
<path class="cls-2" transform="translate(-529.97 -693.17)" d="M531,698.48c0.2-.17.45-0.38,0.77-0.63"/>
<path class="cls-3" transform="translate(-529.97 -693.17)" d="m534.2 696.25a16.6 16.6 0 0 1 8.13-2.08 16.92 16.92 0 0 1 9.06 2.83"/>
<path class="cls-2" transform="translate(-529.97 -693.17)" d="M552.58,697.85c0.32,0.24.57,0.46,0.77,0.63"/>
</svg>
