<?xml version="1.0" encoding="UTF-8"?>
<svg data-name="Layer 1" viewBox="0 0 24 12.13" xmlns="http://www.w3.org/2000/svg">
<defs>
<style>.cls-1{fill:#2c3940;}.cls-2,.cls-3{fill:none;stroke:#2c3940;stroke-linecap:round;stroke-miterlimit:10;stroke-width:2px;}.cls-3{stroke-dasharray:1.92 2.88;}</style>
</defs>
<title>eyeclose</title>
<path class="cls-1" transform="translate(-581.53 -700.66)" d="M603.63,700.66a7.55,7.55,0,0,1-.29,1.11,9.06,9.06,0,0,1-1.45,2.71,10,10,0,0,1-1.43,1.52c-0.15.12-.28,0.24-0.44,0.36l-0.46.34a8.5,8.5,0,0,1-1,.63,10,10,0,0,1-2.39.91,11,11,0,0,1-5.24,0,10,10,0,0,1-2.39-.92,10.06,10.06,0,0,1-1.93-1.33,9.81,9.81,0,0,1-1.45-1.52,9,9,0,0,1-1.45-2.71,7.51,7.51,0,0,1-.29-1.11s0.22,0.36.64,0.93a12.82,12.82,0,0,0,1.93,2.1,14.61,14.61,0,0,0,1.49,1.1,13.2,13.2,0,0,0,1.82,1,11.28,11.28,0,0,0,2,.62,10.39,10.39,0,0,0,2.22.2,10.26,10.26,0,0,0,2.18-.2,10.84,10.84,0,0,0,2-.62c0.32-.13.64-0.29,0.93-0.44l0.46-.25,0.42-.25a14.66,14.66,0,0,0,1.49-1.11,12.89,12.89,0,0,0,1.93-2.11C603.41,701,603.63,700.66,603.63,700.66Z"/>
<path class="cls-2" transform="translate(-581.53 -700.66)" d="M582.53,707.55c0.2,0.17.45,0.38,0.77,0.63"/>
<path class="cls-3" transform="translate(-581.53 -700.66)" d="m585.71 709.75a16.31 16.31 0 0 0 8 2 16.63 16.63 0 0 0 8.89-2.77"/>
<path class="cls-2" transform="translate(-581.53 -700.66)" d="M603.75,708.18c0.32-.24.58-0.46,0.77-0.63"/>
</svg>
