<svg width="14" height="14" viewBox="0 0 14 14" fill="none" xmlns="http://www.w3.org/2000/svg">
<path d="M3.87544 3.90298C4.67621 3.09546 5.78518 2.59437 7.00433 2.59555C8.12834 2.59665 9.15386 3.01865 9.93165 3.71261C10.0431 3.81204 10.222 3.80551 10.3276 3.6999L11.7546 2.27292C11.8708 2.15672 11.8676 1.96684 11.7468 1.85539C10.4749 0.681393 8.76699 -0.027035 6.89329 0.000855202C4.99896 0.0290474 3.28541 0.81593 2.04062 2.06816C1.90182 2.20778 2.06417 3.89802 2.06417 3.89802C2.06417 3.89802 3.0941 4.69094 3.87544 3.90298Z" fill="url(#paint0_linear)"/>
<path d="M3.87562 3.90324C4.67639 3.09571 5.78536 2.59462 7.00451 2.5958C8.12852 2.5969 9.15403 3.0189 9.93183 3.71286C10.0433 3.81229 10.2222 3.80576 10.3278 3.70015L11.1466 2.88126C11.0753 2.82614 11.005 2.76828 10.9364 2.7075C9.86877 1.76201 8.47978 1.16036 6.93786 1.17656C5.33873 1.19336 3.90241 1.84559 2.86386 2.89142C2.7503 3.00578 2.70569 3.90008 2.70569 3.90008C2.70569 3.90008 2.83894 3.88803 3.87562 3.90324Z" fill="url(#paint1_linear)"/>
<path d="M2.59589 6.96037C2.58491 8.19951 3.08562 9.3217 3.89927 10.1285L3.27476 11.4762L2.06417 11.9636C0.791541 10.6978 0.00287439 8.94617 0.000129288 7.01033C-0.00261581 5.08794 0.777815 3.33849 2.04083 2.06833L3.87566 3.90315C3.0944 4.691 2.60633 5.77064 2.59589 6.96037Z" fill="url(#paint2_linear)"/>
<path d="M2.59597 6.95999C2.58499 8.19913 3.0857 9.32132 3.89934 10.1281L2.89601 11.1317C1.85452 10.0974 1.20201 8.67183 1.17703 7.09395C1.15095 5.45266 1.79797 3.96454 2.86417 2.8912L3.87574 3.90277C3.09448 4.69062 2.6064 5.77026 2.59597 6.95999Z" fill="url(#paint3_linear)"/>
<path d="M10.1046 10.132C9.30197 10.9273 8.19392 11.4123 6.97163 11.4046C5.77356 11.397 4.68925 10.9109 3.89959 10.1281L2.06433 11.9634C3.32518 13.2173 5.06091 13.9942 6.97817 14.0001C8.89935 14.006 10.6466 13.216 11.9177 11.9452L11.3932 10.8237L10.1046 10.132Z" fill="url(#paint4_linear)"/>
<path d="M10.1046 10.1319C9.3019 10.9272 8.19392 11.4123 6.97167 11.4046C5.77363 11.3971 4.68931 10.911 3.89966 10.1281L2.896 11.1318C3.94882 12.1777 5.399 12.8241 7.00019 12.8241C8.60143 12.8241 10.0516 12.1777 11.1044 11.1318L10.1046 10.1319Z" fill="url(#paint5_linear)"/>
<path d="M14.0002 6.28126C14.0002 6.14326 13.8883 6.03137 13.7503 6.03137H7.23458C7.11097 6.03137 7.01074 6.1316 7.01074 6.25521V8.40959C7.01074 8.5332 7.11097 8.63342 7.23458 8.63342H10.4167C10.7445 8.63342 10.948 8.99111 10.7794 9.27218C10.5913 9.58589 10.3649 9.87338 10.1073 10.1291C10.1063 10.1301 10.1056 10.131 10.1047 10.132L11.9181 11.9454C12.0037 11.8598 12.0906 11.7741 12.1781 11.6882C13.3112 10.4317 14.0002 8.76461 14.0002 6.94596V6.28126Z" fill="url(#paint6_linear)"/>
<path d="M12.5298 8.83341C12.7859 8.05929 12.2122 7.26102 11.3969 7.26102H7.01062V8.40968C7.01062 8.53329 7.11084 8.63351 7.23446 8.63351H10.4166C10.7444 8.63351 10.9479 8.9912 10.7793 9.27227C10.5917 9.58496 10.3662 9.87155 10.1096 10.1267C10.1078 10.1285 10.1064 10.1303 10.1045 10.1321L11.1043 11.1319C11.6358 10.6045 12.0656 9.9751 12.3629 9.27565C12.4241 9.13098 12.4798 8.98357 12.5298 8.83341Z" fill="url(#paint7_linear)"/>
<defs>
<linearGradient id="paint0_linear" x1="1.98451" y1="2.12597" x2="11.8395" y2="2.12597" gradientUnits="userSpaceOnUse">
<stop stop-color="#FF637B"/>
<stop offset="1" stop-color="#F90217"/>
</linearGradient>
<linearGradient id="paint1_linear" x1="9.44801" y1="5.91257" x2="3.25633" y2="-0.27914" gradientUnits="userSpaceOnUse">
<stop stop-color="#FF637B"/>
<stop offset="1" stop-color="#F90217"/>
</linearGradient>
<linearGradient id="paint2_linear" x1="0.166592" y1="5.13007" x2="3.97316" y2="8.93665" gradientUnits="userSpaceOnUse">
<stop stop-color="#FFD833"/>
<stop offset="1" stop-color="#F2B631"/>
</linearGradient>
<linearGradient id="paint3_linear" x1="4.83822" y1="8.96962" x2="0.770948" y2="4.90235" gradientUnits="userSpaceOnUse">
<stop stop-color="#FFD833"/>
<stop offset="1" stop-color="#F2B631"/>
</linearGradient>
<linearGradient id="paint4_linear" x1="6.39717" y1="11.0619" x2="8.52108" y2="13.1858" gradientUnits="userSpaceOnUse">
<stop stop-color="#28A265"/>
<stop offset="1" stop-color="#28895E"/>
</linearGradient>
<linearGradient id="paint5_linear" x1="9.71347" y1="13.8451" x2="3.56983" y2="7.70145" gradientUnits="userSpaceOnUse">
<stop stop-color="#28A265"/>
<stop offset="1" stop-color="#28895E"/>
</linearGradient>
<linearGradient id="paint6_linear" x1="9.99195" y1="6.82646" x2="13.2497" y2="10.0842" gradientUnits="userSpaceOnUse">
<stop stop-color="#7FAEF4"/>
<stop offset="1" stop-color="#4C8DF1"/>
</linearGradient>
<linearGradient id="paint7_linear" x1="12.7201" y1="11.1508" x2="8.49083" y2="6.92151" gradientUnits="userSpaceOnUse">
<stop stop-color="#7FAEF4"/>
<stop offset="1" stop-color="#4C8DF1"/>
</linearGradient>
</defs>
</svg>
