<svg width="16" height="17" viewBox="0 0 16 17" fill="none" xmlns="http://www.w3.org/2000/svg">
<path d="M15.568 13.84L11.888 10.16C11.344 11.024 10.64 11.7333 9.776 12.288L13.44 15.968C13.7387 16.256 14.0907 16.4 14.496 16.4C14.912 16.4 15.264 16.2507 15.552 15.952C15.8507 15.664 16 15.312 16 14.896C16 14.4907 15.856 14.1387 15.568 13.84ZM12 6.4C12 5.312 11.728 4.304 11.184 3.376C10.6507 2.46933 9.93067 1.74933 9.024 1.216C8.096 0.672 7.088 0.4 6 0.4C4.912 0.4 3.904 0.672 2.976 1.216C2.06933 1.74933 1.34933 2.46933 0.816 3.376C0.272 4.304 0 5.312 0 6.4C0 7.488 0.272 8.496 0.816 9.424C1.34933 10.3307 2.06933 11.0507 2.976 11.584C3.904 12.128 4.912 12.4 6 12.4C7.088 12.4 8.096 12.128 9.024 11.584C9.93067 11.0507 10.6507 10.3307 11.184 9.424C11.728 8.496 12 7.488 12 6.4ZM6 10.896C5.18933 10.896 4.432 10.6933 3.728 10.288C3.056 9.88267 2.51733 9.344 2.112 8.672C1.70667 7.968 1.504 7.21067 1.504 6.4C1.504 5.58933 1.70667 4.832 2.112 4.128C2.51733 3.456 3.056 2.91733 3.728 2.512C4.432 2.10667 5.18933 1.904 6 1.904C6.81067 1.904 7.568 2.10667 8.272 2.512C8.944 2.91733 9.48267 3.456 9.888 4.128C10.2933 4.832 10.496 5.58933 10.496 6.4C10.496 7.21067 10.2933 7.968 9.888 8.672C9.48267 9.344 8.944 9.88267 8.272 10.288C7.568 10.6933 6.81067 10.896 6 10.896ZM2.496 6.4H3.504C3.504 5.952 3.616 5.536 3.84 5.152C4.064 4.768 4.368 4.464 4.752 4.24C5.136 4.016 5.552 3.904 6 3.904V2.896C5.36 2.896 4.77333 3.056 4.24 3.376C3.70667 3.68533 3.28 4.10667 2.96 4.64C2.65067 5.17333 2.496 5.76 2.496 6.4Z" fill="#485C8C"/>
</svg>
