<?xml version="1.0" encoding="utf-8"?>
<!-- Generator: Adobe Illustrator 16.0.0, SVG Export Plug-In . SVG Version: 6.00 Build 0)  -->
<!DOCTYPE svg PUBLIC "-//W3C//DTD SVG 1.1//EN" "http://www.w3.org/Graphics/SVG/1.1/DTD/svg11.dtd" [
	<!ENTITY ns_extend "http://ns.adobe.com/Extensibility/1.0/">
	<!ENTITY ns_ai "http://ns.adobe.com/AdobeIllustrator/10.0/">
	<!ENTITY ns_graphs "http://ns.adobe.com/Graphs/1.0/">
	<!ENTITY ns_vars "http://ns.adobe.com/Variables/1.0/">
	<!ENTITY ns_imrep "http://ns.adobe.com/ImageReplacement/1.0/">
	<!ENTITY ns_sfw "http://ns.adobe.com/SaveForWeb/1.0/">
	<!ENTITY ns_custom "http://ns.adobe.com/GenericCustomNamespace/1.0/">
	<!ENTITY ns_adobe_xpath "http://ns.adobe.com/XPath/1.0/">
]>
<svg version="1.1" id="Layer_1" xmlns:x="&ns_extend;" xmlns:i="&ns_ai;" xmlns:graph="&ns_graphs;"
	 xmlns="http://www.w3.org/2000/svg" xmlns:xlink="http://www.w3.org/1999/xlink" x="0px" y="0px" width="400px" height="400px"
	 viewBox="0 0 400 400" enable-background="new 0 0 400 400" xml:space="preserve">
<metadata>
	<sfw  xmlns="&ns_sfw;">
		<slices></slices>
		<sliceSourceBounds  width="293.734" height="396" y="-418.4" x="53.133" bottomLeftOrigin="true"></sliceSourceBounds>
	</sfw>
</metadata>
<g>
	<path fill="#485C8C" d="M318.836,112.029c-38.562,0-77.094,0-115.651,0H162.4c-36.188-0.267-63.386-0.267-81.613,0
		c-10.298,0.267-17.02,2.115-20.186,5.548c-2.925,3.434-3.699,10.167-2.394,20.199c10.83,78.421,21.927,156.844,33.288,235.269
		c1.041,7.13,2.49,12.399,4.353,15.834c1.86,3.722,4.617,6.213,8.316,7.54c3.697,1.307,9.259,1.982,16.632,1.982h164.364
		c7.927,0,13.875-0.797,17.84-2.369c4.207-1.596,7.252-4.494,9.089-8.726c1.86-3.965,3.313-9.89,4.376-17.815
		c7.398-61.55,16.755-136.783,28.114-225.781c1.308-9.234,1.449-15.966,0.387-20.197c-0.773-4.22-3.143-7.133-7.105-8.715
		C334.137,113.214,327.805,112.296,318.836,112.029z"/>
	<path fill="#F2F2F2" d="M139.023,356.822c-6.066,0.773-10.83-0.944-14.262-5.175c-2.634-3.432-4.351-8.436-5.148-15.036
		c-2.901-24.029-7.131-60.196-12.668-108.546l-6.333-54.247c-0.532-5.813,0.12-10.563,1.982-14.263
		c2.103-3.963,5.802-6.465,11.071-7.53c6.092-1.051,10.83,0.266,14.264,3.965c3.166,3.166,5.029,7.795,5.56,13.864
		c1.837,14.262,4.473,35.634,7.905,64.159l3.966,32.104c1.861,14.771,4.351,36.94,7.518,66.527
		c0.798,6.865,0.289,12.138-1.571,15.835C149.203,353.244,145.092,356,139.023,356.822z"/>
	<path fill="#F2F2F2" d="M218.632,336.611c0,6.067-1.307,10.952-3.966,14.649c-2.898,4.206-7.109,6.189-12.666,5.948
		c-11.097,0-16.632-7.396-16.632-22.193c0.24-11.893,0.24-29.832,0-53.861v-26.543h-0.387v-26.933c0.24-23.762,0.24-41.591,0-53.461
		c0-6.864,0.918-12.147,2.754-15.846c2.37-4.75,6.6-7.264,12.668-7.53c6.335-0.265,11.095,1.851,14.262,6.335
		c2.37,3.697,3.578,8.848,3.578,15.448C218.485,209.068,218.632,263.724,218.632,336.611z"/>
	<path fill="#F2F2F2" d="M304.598,175.402c-8.994,72.345-15.859,126.496-20.598,162.394c-0.533,6.067-2.394,10.807-5.561,14.238
		c-3.434,3.966-8.051,5.416-13.877,4.378c-5.801-0.799-9.767-3.555-11.868-8.318c-1.86-3.966-2.247-9.259-1.185-15.835
		c1.303-8.993,3.045-22.336,5.15-40.03c2.102-17.675,3.696-30.898,4.76-39.601c2.369-17.694,5.659-44.24,9.89-79.605
		c1.063-7.133,2.634-12.282,4.76-15.449c2.902-4.218,7.521-6.199,13.853-5.935C301.284,152.691,306.166,160.608,304.598,175.402z"/>
	<path fill="#485C8C" d="M170.307,36.374c2.103-11.616,4.23-19.533,6.358-23.763c2.079-5.283,4.881-8.448,8.316-9.5
		c3.674-1.063,9.476-0.931,17.407,0.386c10.829,1.596,18.227,3.046,22.188,4.365c5.272,1.317,8.97,3.299,11.074,5.934
		c2.126,2.646,3.192,6.745,3.192,12.28c-0.293,3.965-1.066,11.097-2.369,21.395l27.702,4.75c26.929,5.016,47.14,8.583,60.604,10.698
		c7.906,1.317,13.468,3.033,16.633,5.148c4.475,3.435,6.213,8.85,5.15,16.233c-0.773,7.132-4.085,11.496-9.911,13.067
		c-3.677,0.798-9.478,0.532-17.405-0.786c-45.426-7.651-113.551-19.413-204.374-35.247l-17.455-3.179
		c-12.135-2.104-21.103-3.554-26.929-4.352c-13.2-2.115-18.857-8.847-17.019-20.197c2.127-11.351,9.766-15.848,22.966-13.466
		C118.161,27.527,149.443,32.942,170.307,36.374z"/>
</g>
</svg>
