<?xml version="1.0" encoding="utf-8"?>
<!-- Generator: Adobe Illustrator 16.0.0, SVG Export Plug-In . SVG Version: 6.00 Build 0)  -->
<!DOCTYPE svg PUBLIC "-//W3C//DTD SVG 1.1//EN" "http://www.w3.org/Graphics/SVG/1.1/DTD/svg11.dtd" [
	<!ENTITY ns_extend "http://ns.adobe.com/Extensibility/1.0/">
	<!ENTITY ns_ai "http://ns.adobe.com/AdobeIllustrator/10.0/">
	<!ENTITY ns_graphs "http://ns.adobe.com/Graphs/1.0/">
	<!ENTITY ns_vars "http://ns.adobe.com/Variables/1.0/">
	<!ENTITY ns_imrep "http://ns.adobe.com/ImageReplacement/1.0/">
	<!ENTITY ns_sfw "http://ns.adobe.com/SaveForWeb/1.0/">
	<!ENTITY ns_custom "http://ns.adobe.com/GenericCustomNamespace/1.0/">
	<!ENTITY ns_adobe_xpath "http://ns.adobe.com/XPath/1.0/">
]>
<svg version="1.1" id="Layer_1" xmlns:x="&ns_extend;" xmlns:i="&ns_ai;" xmlns:graph="&ns_graphs;"
	 xmlns="http://www.w3.org/2000/svg" xmlns:xlink="http://www.w3.org/1999/xlink" x="0px" y="0px" width="400px" height="400px"
	 viewBox="0 20 400 400" enable-background="new 0 20 400 400" xml:space="preserve">
<metadata>
	<sfw  xmlns="&ns_sfw;">
		<slices></slices>
		<sliceSourceBounds  width="395.999" height="264.534" y="88.232" x="1.499" bottomLeftOrigin="true"></sliceSourceBounds>
	</sfw>
</metadata>
<path fill="#485C8C" d="M189.402,87.733h21.377c1.598,0.52,2.781,0.785,3.578,0.785c15.324,1.063,30.213,4.496,44.74,10.297
	c48.848,17.692,91.34,48.583,127.522,92.669c15.301,19.01,15.18,38.143-0.412,57.43c-20.834,25.861-45.923,48.172-75.218,66.902
	c-25.089,16.123-50.42,26.928-76.04,32.486c-4.762,1.063-11.892,2.247-21.391,3.577l-2.781,0.388h-21.377
	c-1.583-0.531-2.9-0.8-3.951-0.8c-13.21-1.329-26.142-4.084-38.818-8.313c-50.687-16.896-95.304-48.703-133.844-95.449
	c-6.346-7.637-9.897-15.83-10.695-24.559c-0.798-11.602,3.563-22.948,13.063-34.042c21.392-25.609,46.733-47.652,76.04-66.131
	c26.129-16.363,52.004-27.06,77.611-32.074L189.402,87.733z"/>
<path fill="#FFFFFF" d="M129.816,220.396c0,12.566,3.14,24.221,9.417,34.972c6.278,10.752,14.793,19.369,25.544,25.873
	c10.762,6.278,22.415,9.418,34.961,9.418c12.772,0,24.55-3.14,35.301-9.418c10.751-6.258,19.286-14.793,25.544-25.545
	c6.278-10.751,9.418-22.404,9.418-34.961c0-12.772-3.14-24.539-9.418-35.3c-6.258-10.751-14.793-19.267-25.544-25.544
	c-10.751-6.278-22.528-9.417-35.301-9.417c-12.546,0-24.199,3.139-34.961,9.417c-10.751,6.278-19.266,14.793-25.544,25.544
	C132.956,195.969,129.816,207.624,129.816,220.396z"/>
<path fill="#485C8C" d="M213.189,180.735c-6.956,5.827-11.203,11.869-12.783,18.146c-1.56,6.054-0.204,11.993,4.042,17.819
	c8.063,12.095,20.496,13.552,37.32,4.37c0.903,7.171-1.354,14.681-6.729,22.518c-5.171,7.634-11.53,12.887-19.163,15.8
	c-8.967,3.591-18.045,4.145-27.228,1.683c-9.191-2.688-16.702-7.838-22.527-15.47c-5.603-7.612-8.402-16.127-8.402-25.545
	c0.226-9.634,3.365-18.147,9.417-25.544c5.601-6.945,12.885-11.768,21.851-14.455C197.953,177.369,206.028,177.596,213.189,180.735z
	"/>
</svg>
